<svg width="20" height="20" viewBox="0 0 20 20" fill="none" xmlns="http://www.w3.org/2000/svg">
<g clip-path="url(#clip0_52_51)">
<path d="M12.5078 9.52344L10.5664 13.4062C10.332 13.8789 9.65234 13.8633 9.4375 13.3828L7.21484 8.44922L6.04297 11.25H2.36719L9.49609 18.5352C9.77344 18.8203 10.2227 18.8203 10.5 18.5352L17.6328 11.25H13.3711L12.5078 9.52344ZM18.5039 2.88672L18.4102 2.78906C16.3984 0.734375 13.1055 0.734375 11.0898 2.78906L10 3.90625L8.91016 2.79297C6.89844 0.734375 3.60156 0.734375 1.58984 2.79297L1.49609 2.88672C-0.406249 4.83203 -0.488281 7.92969 1.21094 10H5.21094L6.61328 6.63281C6.82422 6.12891 7.53516 6.11719 7.76172 6.61719L10.0352 11.668L11.9492 7.84375C12.1797 7.38281 12.8359 7.38281 13.0664 7.84375L14.1445 10H18.7891C20.4883 7.92969 20.4063 4.83203 18.5039 2.88672Z" fill="#EFBCD5"/>
</g>
<defs>
<clipPath id="clip0_52_51">
<rect width="20" height="20" fill="white"/>
</clipPath>
</defs>
</svg>
