<svg width="72" height="72" viewBox="0 0 72 72" fill="none" xmlns="http://www.w3.org/2000/svg">
<path d="M67.5 69.1875V72H4.5V69.1875C4.5 68.2556 5.25558 67.5 6.1875 67.5H9V16.875C9 15.011 10.511 13.5 12.375 13.5H24.75V3.375C24.75 1.51102 26.261 0 28.125 0H43.875C45.739 0 47.25 1.51102 47.25 3.375V13.5H59.625C61.489 13.5 63 15.011 63 16.875V67.5H65.8125C66.7444 67.5 67.5 68.2556 67.5 69.1875ZM47.8125 27H42.1875C41.2556 27 40.5 27.7556 40.5 28.6875V34.3125C40.5 35.2444 41.2556 36 42.1875 36H47.8125C48.7444 36 49.5 35.2444 49.5 34.3125V28.6875C49.5 27.7556 48.7444 27 47.8125 27ZM24.1875 36H29.8125C30.7444 36 31.5 35.2444 31.5 34.3125V28.6875C31.5 27.7556 30.7444 27 29.8125 27H24.1875C23.2556 27 22.5 27.7556 22.5 28.6875V34.3125C22.5 35.2444 23.2556 36 24.1875 36ZM38.8125 54H33.1875C32.2556 54 31.5 54.7556 31.5 55.6875V67.5H40.5V55.6875C40.5 54.7556 39.7444 54 38.8125 54ZM47.8125 40.5H42.1875C41.2556 40.5 40.5 41.2556 40.5 42.1875V47.8125C40.5 48.7444 41.2556 49.5 42.1875 49.5H47.8125C48.7444 49.5 49.5 48.7444 49.5 47.8125V42.1875C49.5 41.2556 48.7444 40.5 47.8125 40.5ZM31.5 42.1875C31.5 41.2556 30.7444 40.5 29.8125 40.5H24.1875C23.2556 40.5 22.5 41.2556 22.5 42.1875V47.8125C22.5 48.7444 23.2556 49.5 24.1875 49.5H29.8125C30.7444 49.5 31.5 48.7444 31.5 47.8125V42.1875ZM30.0938 13.5H33.75V17.1562C33.75 17.38 33.8389 17.5946 33.9971 17.7529C34.1554 17.9111 34.37 18 34.5938 18H37.4062C37.63 18 37.8446 17.9111 38.0029 17.7529C38.1611 17.5946 38.25 17.38 38.25 17.1562V13.5H41.9062C42.13 13.5 42.3446 13.4111 42.5029 13.2529C42.6611 13.0946 42.75 12.88 42.75 12.6562V9.84375C42.75 9.61997 42.6611 9.40536 42.5029 9.24713C42.3446 9.08889 42.13 9 41.9062 9H38.25V5.34375C38.25 5.11997 38.1611 4.90536 38.0029 4.74713C37.8446 4.58889 37.63 4.5 37.4062 4.5H34.5938C34.37 4.5 34.1554 4.58889 33.9971 4.74713C33.8389 4.90536 33.75 5.11997 33.75 5.34375V9H30.0938C29.87 9 29.6554 9.08889 29.4971 9.24713C29.3389 9.40536 29.25 9.61997 29.25 9.84375V12.6562C29.25 12.88 29.3389 13.0946 29.4971 13.2529C29.6554 13.4111 29.87 13.5 30.0938 13.5Z" fill="white"/>
</svg>
