<svg width="19" height="19" viewBox="0 0 19 19" fill="none" xmlns="http://www.w3.org/2000/svg">
<g clip-path="url(#clip0_231_1270)">
<path d="M2.30772 16.7308C2.30772 17.1898 2.49006 17.63 2.81465 17.9546C3.13923 18.2792 3.57946 18.4615 4.03849 18.4615H14.4231C14.8821 18.4615 15.3224 18.2792 15.6469 17.9546C15.9715 17.63 16.1539 17.1898 16.1539 16.7308V4.61539H2.30772V16.7308ZM12.1154 7.50001C12.1154 7.347 12.1762 7.20025 12.2844 7.09206C12.3926 6.98387 12.5393 6.92308 12.6923 6.92308C12.8453 6.92308 12.9921 6.98387 13.1003 7.09206C13.2085 7.20025 13.2693 7.347 13.2693 7.50001V15.5769C13.2693 15.7299 13.2085 15.8767 13.1003 15.9849C12.9921 16.0931 12.8453 16.1539 12.6923 16.1539C12.5393 16.1539 12.3926 16.0931 12.2844 15.9849C12.1762 15.8767 12.1154 15.7299 12.1154 15.5769V7.50001ZM8.65387 7.50001C8.65387 7.347 8.71465 7.20025 8.82285 7.09206C8.93104 6.98387 9.07778 6.92308 9.23079 6.92308C9.3838 6.92308 9.53054 6.98387 9.63874 7.09206C9.74693 7.20025 9.80772 7.347 9.80772 7.50001V15.5769C9.80772 15.7299 9.74693 15.8767 9.63874 15.9849C9.53054 16.0931 9.3838 16.1539 9.23079 16.1539C9.07778 16.1539 8.93104 16.0931 8.82285 15.9849C8.71465 15.8767 8.65387 15.7299 8.65387 15.5769V7.50001ZM5.19233 7.50001C5.19233 7.347 5.25311 7.20025 5.36131 7.09206C5.4695 6.98387 5.61624 6.92308 5.76925 6.92308C5.92226 6.92308 6.06901 6.98387 6.1772 7.09206C6.28539 7.20025 6.34618 7.347 6.34618 7.50001V15.5769C6.34618 15.7299 6.28539 15.8767 6.1772 15.9849C6.06901 16.0931 5.92226 16.1539 5.76925 16.1539C5.61624 16.1539 5.4695 16.0931 5.36131 15.9849C5.25311 15.8767 5.19233 15.7299 5.19233 15.5769V7.50001ZM16.7308 1.15385H12.4039L12.0649 0.479574C11.9931 0.33542 11.8825 0.214161 11.7456 0.129438C11.6086 0.0447158 11.4507 -0.000109181 11.2897 6.32189e-06H7.16829C7.00761 -0.000611366 6.85001 0.0440465 6.71353 0.128863C6.57706 0.21368 6.46724 0.335226 6.39666 0.479574L6.05772 1.15385H1.73079C1.57778 1.15385 1.43104 1.21464 1.32285 1.32283C1.21465 1.43102 1.15387 1.57777 1.15387 1.73078L1.15387 2.88462C1.15387 3.03763 1.21465 3.18437 1.32285 3.29257C1.43104 3.40076 1.57778 3.46155 1.73079 3.46155H16.7308C16.8838 3.46155 17.0305 3.40076 17.1387 3.29257C17.2469 3.18437 17.3077 3.03763 17.3077 2.88462V1.73078C17.3077 1.57777 17.2469 1.43102 17.1387 1.32283C17.0305 1.21464 16.8838 1.15385 16.7308 1.15385Z" fill="#4B5267"/>
</g>
<defs>
<clipPath id="clip0_231_1270">
<rect width="18.4615" height="18.4615" fill="white"/>
</clipPath>
</defs>
</svg>
