<svg width="72" height="72" viewBox="0 0 72 72" fill="none" xmlns="http://www.w3.org/2000/svg">
<path d="M10.8 32.4C14.7712 32.4 18 29.1713 18 25.2C18 21.2288 14.7712 18 10.8 18C6.82875 18 3.6 21.2288 3.6 25.2C3.6 29.1713 6.82875 32.4 10.8 32.4ZM61.2 32.4C65.1712 32.4 68.4 29.1713 68.4 25.2C68.4 21.2288 65.1712 18 61.2 18C57.2287 18 54 21.2288 54 25.2C54 29.1713 57.2287 32.4 61.2 32.4ZM64.8 36H57.6C55.62 36 53.8312 36.7988 52.5262 38.0926C57.06 40.5788 60.2775 45.0676 60.975 50.4001H68.4C70.3913 50.4001 72 48.7913 72 46.8V43.2001C72 39.2288 68.7712 36 64.8 36ZM36 36C42.9637 36 48.6 30.3638 48.6 23.4C48.6 16.4363 42.9637 10.8 36 10.8C29.0362 10.8 23.4 16.4363 23.4 23.4C23.4 30.3638 29.0362 36 36 36ZM44.64 39.6H43.7062C41.3662 40.725 38.7675 41.4 36 41.4C33.2325 41.4 30.645 40.725 28.2937 39.6H27.36C20.205 39.6 14.4 45.4051 14.4 52.5601V55.8C14.4 58.7813 16.8188 61.2001 19.8 61.2001H52.2C55.1812 61.2001 57.6 58.7813 57.6 55.8V52.5601C57.6 45.4051 51.795 39.6 44.64 39.6ZM19.4738 38.0926C18.1688 36.7988 16.38 36 14.4 36H7.2C3.22875 36 0 39.2288 0 43.2001V46.8C0 48.7913 1.60875 50.4001 3.6 50.4001H11.0138C11.7225 45.0676 14.94 40.5788 19.4738 38.0926Z" fill="white"/>
</svg>
